<?xml version="1.0" standalone="no"?>
<!DOCTYPE svg PUBLIC "-//W3C//DTD SVG 20010904//EN"
 "http://www.w3.org/TR/2001/REC-SVG-20010904/DTD/svg10.dtd">
<svg version="1.0" xmlns="http://www.w3.org/2000/svg"
 width="2000.000000pt" height="2000.000000pt" viewBox="0 0 2000.000000 2000.000000"
 preserveAspectRatio="xMidYMid meet">
<metadata>
Created by potrace 1.11, written by Peter Selinger 2001-2013
</metadata>
<g transform="translate(0.000000,2000.000000) scale(0.100000,-0.100000)"
fill="#000000" stroke="none">
<path d="M9027 15884 c-1 -1 -153 -5 -337 -9 -184 -3 -373 -8 -420 -10 -47 -2
-166 -6 -265 -10 -99 -3 -207 -8 -240 -10 -33 -3 -105 -7 -160 -10 -55 -3
-125 -7 -155 -10 -30 -2 -102 -7 -160 -10 -210 -11 -355 -22 -400 -30 -8 -1
-40 -6 -70 -10 -30 -3 -67 -8 -81 -11 -15 -2 -47 -6 -70 -9 -67 -8 -421 -56
-449 -60 -14 -2 -50 -7 -80 -10 -30 -3 -83 -10 -118 -16 -34 -5 -84 -12 -110
-15 -63 -6 -88 -11 -222 -41 -144 -32 -342 -124 -469 -218 -138 -102 -195
-173 -515 -640 -34 -49 -82 -119 -107 -155 -102 -146 -167 -242 -414 -610
-143 -212 -278 -412 -300 -445 -24 -34 -83 -94 -137 -140 -82 -69 -113 -87
-215 -129 -65 -27 -136 -57 -158 -66 -22 -10 -96 -41 -165 -70 -69 -28 -149
-62 -178 -76 -29 -13 -55 -24 -57 -24 -3 0 -24 -9 -48 -19 -23 -11 -172 -74
-332 -141 -159 -66 -299 -125 -310 -130 -52 -23 -151 -65 -388 -165 l-257
-108 -78 -126 c-42 -69 -79 -130 -81 -135 -2 -6 -8 -15 -13 -21 -5 -5 -40 -60
-78 -121 -70 -115 -70 -114 -105 -309 -2 -16 -15 -84 -28 -150 -17 -90 -22
-150 -21 -240 1 -66 5 -381 8 -700 3 -319 7 -593 10 -610 2 -16 7 -64 10 -105
4 -41 9 -95 12 -120 9 -87 14 -136 19 -201 3 -36 7 -81 10 -100 2 -19 7 -69
10 -111 3 -43 9 -88 13 -100 3 -13 8 -763 9 -1668 4 -1642 4 -1645 -18 -1755
-11 -60 -23 -121 -25 -135 -2 -14 -6 -35 -9 -46 -4 -18 4 -25 54 -43 33 -12
79 -24 103 -27 120 -15 2927 -24 3393 -11 154 4 363 10 465 12 799 19 1025 24
1220 30 91 2 269 7 395 10 332 8 572 14 800 20 110 3 272 8 360 10 855 23
3054 23 3885 0 457 -13 632 -18 1120 -30 124 -3 306 -8 405 -10 235 -7 459
-13 785 -20 303 -6 504 -11 915 -22 517 -14 3313 -4 3390 12 17 3 56 15 87 27
49 18 57 24 53 42 -2 11 -16 83 -30 159 l-26 137 4 1643 c2 903 6 1653 9 1667
3 14 9 64 13 110 3 47 8 92 10 100 2 8 7 51 10 95 3 44 7 96 10 115 3 19 7 62
10 95 11 133 17 191 21 215 2 14 7 291 10 615 3 325 7 644 7 710 1 66 -4 147
-10 180 -7 33 -15 76 -18 95 -3 19 -7 46 -10 60 -3 14 -14 72 -25 129 -11 57
-26 115 -33 130 -8 14 -80 132 -161 262 l-146 236 -78 32 c-42 19 -96 42 -120
53 -24 10 -77 32 -118 48 -40 16 -82 34 -91 39 -18 10 -179 78 -264 111 -26
11 -66 27 -90 38 -24 11 -57 25 -74 32 -87 36 -434 183 -460 195 -16 7 -187
79 -380 160 -192 81 -352 150 -355 154 -3 3 -44 39 -92 78 -74 63 -101 94
-189 225 -334 497 -587 872 -654 968 -42 59 -312 450 -358 518 -62 91 -179
212 -263 273 -83 59 -325 184 -377 193 -15 3 -35 7 -45 10 -9 3 -28 8 -42 10
-14 3 -44 10 -68 16 -23 5 -59 12 -79 15 -60 8 -196 26 -223 30 -14 2 -47 6
-75 9 -62 8 -212 28 -300 41 -48 7 -267 37 -305 41 -46 5 -198 25 -230 29 -14
3 -74 7 -135 10 -60 3 -139 7 -175 10 -97 7 -214 15 -320 20 -52 3 -124 7
-160 10 -56 4 -229 10 -510 20 -436 15 -733 18 -1643 19 -582 1 -1059 1 -1060
0z m1933 -718 c712 -8 1179 -16 1240 -20 25 -2 126 -7 225 -11 283 -12 287
-12 340 -18 50 -6 100 -11 230 -22 39 -4 86 -8 105 -11 19 -2 64 -6 100 -9 36
-3 79 -7 95 -10 17 -2 59 -6 95 -10 36 -3 83 -9 105 -12 22 -2 56 -6 75 -8 19
-2 55 -6 80 -9 25 -3 74 -8 110 -11 36 -3 81 -8 100 -10 19 -3 54 -7 77 -10
67 -8 189 -44 240 -72 68 -36 116 -93 148 -176 50 -128 175 -447 260 -662 45
-115 111 -282 145 -370 35 -88 69 -173 76 -190 7 -16 31 -79 54 -140 23 -60
48 -123 55 -140 31 -72 158 -401 158 -410 0 -6 -11 -28 -25 -50 l-25 -40
-5023 0 -5023 0 -30 48 c-20 33 -26 51 -19 60 5 6 19 37 30 67 23 64 209 535
222 565 5 11 46 115 91 230 74 192 164 420 362 923 78 200 99 231 185 281 51
30 182 70 252 77 31 3 63 6 175 19 17 2 57 6 90 10 33 3 80 8 105 11 25 3 63
7 85 9 22 3 63 7 90 10 102 11 141 15 195 20 30 3 71 7 90 10 19 2 71 7 115
10 44 4 93 8 109 10 99 13 251 22 471 30 94 3 192 8 219 11 51 5 235 8 1251
19 319 4 581 8 582 8 3 4 736 -1 1313 -7z m-5853 -128 c11 -13 25 -42 32 -66
13 -46 14 -43 -71 -317 -28 -92 -320 -832 -633 -1605 -132 -326 -159 -374
-193 -348 -47 34 -127 130 -154 182 l-29 58 0 207 c0 113 2 226 5 251 3 25 8
68 12 95 3 28 14 76 25 107 10 32 19 62 19 67 0 5 33 62 73 128 141 228 311
498 342 543 17 25 60 88 95 140 36 52 69 100 73 105 10 13 95 133 171 245 159
231 188 257 233 208z m9877 -18 c31 -32 187 -251 401 -563 46 -67 173 -264
282 -437 154 -245 204 -333 225 -395 41 -125 51 -223 50 -487 l-1 -198 -30
-58 c-26 -51 -147 -192 -165 -192 -26 0 -65 74 -146 276 -51 126 -98 243 -105
259 -7 17 -85 210 -173 430 -89 220 -166 414 -173 430 -7 17 -13 32 -13 35 -1
3 -43 109 -93 235 -51 127 -99 255 -107 285 -8 30 -31 107 -51 170 -32 106
-34 119 -24 160 14 53 43 89 70 87 11 -1 34 -17 53 -37z m-7476 -2782 c38 -73
97 -185 129 -248 33 -63 90 -172 127 -243 l67 -127 -56 -100 c-53 -95 -100
-224 -110 -300 -2 -19 -7 -69 -10 -110 -4 -41 -8 -76 -9 -78 -2 -1 -11 50 -21
115 -10 65 -19 127 -21 138 -2 10 -6 37 -9 60 -8 52 -34 213 -40 245 -2 14 -7
41 -9 60 -2 19 -14 91 -25 160 -11 69 -23 143 -26 165 -3 23 -8 52 -10 65 -3
14 -8 45 -11 70 -3 25 -8 54 -10 65 -2 11 -9 52 -14 90 -6 39 -13 78 -16 88
-13 43 10 7 74 -115z m5058 115 c-3 -10 -8 -38 -11 -63 -3 -25 -8 -52 -10 -60
-2 -8 -7 -35 -10 -60 -3 -25 -8 -57 -11 -72 -2 -16 -6 -40 -8 -55 -3 -16 -12
-73 -21 -128 -20 -124 -22 -139 -30 -195 -3 -25 -10 -67 -15 -95 -6 -27 -12
-70 -15 -95 -3 -25 -12 -81 -20 -125 -8 -44 -16 -96 -19 -115 -3 -19 -13 -87
-22 -150 l-18 -115 -7 55 c-4 30 -9 82 -12 115 -6 73 -48 213 -81 269 -13 23
-38 67 -55 99 l-32 57 82 158 c45 86 94 180 109 207 15 28 63 118 105 200 43
83 82 158 87 168 5 9 11 17 14 17 3 0 3 -8 0 -17z m-463 -820 c20 -43 44 -109
53 -148 20 -93 33 -251 23 -289 -4 -17 -10 -47 -13 -66 -19 -122 -59 -257
-102 -340 -24 -47 -43 -80 -43 -75 -1 6 5 42 13 80 8 39 17 104 20 145 17 223
17 232 -9 363 -14 71 -25 131 -25 133 0 2 -909 4 -2019 4 l-2019 0 -6 -27 c-3
-16 -8 -41 -11 -58 -3 -16 -12 -66 -21 -110 -9 -48 -12 -106 -9 -145 3 -36 7
-105 10 -155 3 -49 12 -118 20 -153 8 -35 15 -70 15 -79 0 -21 -87 153 -94
187 -3 14 -11 50 -19 80 -8 30 -18 73 -23 95 -4 22 -8 42 -9 45 -5 16 -19 109
-19 130 -1 33 11 158 19 190 3 14 8 36 11 50 10 52 16 67 52 142 l37 77 2065
1 2066 0 37 -77z m-8293 -110 c173 -212 183 -224 220 -268 19 -23 69 -84 110
-135 41 -51 80 -98 86 -105 11 -10 26 -70 38 -150 2 -16 12 -75 21 -130 9 -55
19 -113 22 -130 2 -16 15 -97 29 -180 14 -82 27 -161 29 -175 6 -38 64 -391
70 -427 5 -29 10 -33 63 -44 31 -7 62 -14 67 -15 6 -2 24 -6 40 -9 17 -3 64
-15 105 -25 41 -10 86 -21 100 -24 14 -2 153 -34 310 -71 157 -36 292 -68 301
-70 9 -2 64 -15 123 -29 59 -14 122 -28 139 -31 41 -8 91 -32 112 -55 15 -16
14 -21 -8 -61 -13 -24 -50 -93 -82 -154 -32 -60 -70 -132 -85 -160 -15 -27
-58 -108 -96 -180 -37 -71 -84 -160 -104 -196 -86 -161 -216 -199 -525 -154
-16 2 -59 7 -95 10 -36 3 -86 8 -112 11 l-48 6 6 -33 c3 -19 10 -56 15 -84 5
-27 11 -63 13 -80 3 -16 12 -73 21 -125 l16 -95 -28 -23 c-53 -42 -100 -73
-119 -76 -10 -2 -44 -7 -74 -11 -30 -4 -63 -9 -74 -11 -10 -2 -44 -6 -75 -10
-31 -3 -59 -8 -62 -10 -4 -2 -200 45 -206 50 -1 1 -5 17 -8 36 -3 19 -8 42
-10 50 -2 8 -7 33 -10 55 -3 23 -7 52 -10 65 -3 13 -7 42 -10 65 -3 22 -8 51
-10 65 -7 36 -16 91 -20 120 -2 14 -8 46 -13 73 -5 26 -7 47 -3 47 3 0 -1 5
-9 9 -14 8 -48 14 -160 25 -63 7 -248 26 -290 31 -19 2 -64 7 -99 10 -79 8
-148 41 -208 101 -58 58 -69 89 -78 204 -4 52 -8 107 -10 123 -2 15 -6 62 -10
105 -3 42 -8 93 -10 112 -2 19 -7 67 -10 105 -3 39 -8 88 -10 110 -2 22 -7 72
-10 110 -3 39 -8 88 -10 110 -2 22 -7 74 -10 115 -3 41 -8 86 -11 99 -6 27
-21 27 181 -4 55 -9 143 -22 195 -30 52 -8 106 -17 120 -19 14 -3 59 -10 100
-16 41 -6 86 -13 99 -15 22 -4 23 -2 16 41 -3 25 -8 53 -10 62 -1 10 -8 53
-15 97 -13 81 -17 107 -24 148 -2 12 -6 40 -10 62 -3 23 -9 52 -11 65 -5 24
-31 187 -42 260 -3 24 -29 65 -81 130 -42 52 -79 97 -82 100 -5 4 -259 316
-282 346 -10 13 26 156 47 189 7 12 67 65 132 118 115 93 123 97 179 103 32 4
60 7 61 8 1 1 20 3 41 4 39 3 40 2 152 -135z m12654 121 c37 -4 91 -41 210
-144 85 -73 86 -74 112 -163 l25 -89 -27 -36 c-16 -21 -30 -39 -33 -42 -4 -3
-44 -52 -91 -110 -46 -58 -90 -110 -96 -117 -6 -6 -54 -65 -107 -130 -80 -99
-96 -125 -102 -163 -3 -25 -10 -70 -15 -100 -5 -30 -12 -70 -15 -87 -3 -18 -8
-48 -11 -65 -3 -18 -7 -46 -10 -63 -2 -16 -6 -41 -9 -55 -3 -14 -7 -41 -10
-60 -3 -19 -7 -46 -9 -60 -3 -14 -7 -41 -10 -60 -3 -19 -10 -59 -16 -89 -16
-84 -14 -91 18 -86 15 3 43 7 62 10 30 4 124 19 255 40 56 9 300 46 337 51 32
5 37 3 34 -13 -2 -10 -7 -54 -10 -98 -4 -44 -9 -98 -11 -120 -2 -22 -7 -71
-10 -110 -4 -38 -8 -88 -10 -110 -2 -22 -7 -71 -10 -110 -3 -38 -7 -86 -10
-105 -2 -19 -7 -69 -10 -110 -4 -41 -8 -91 -10 -110 -2 -19 -6 -72 -10 -118
-3 -46 -8 -93 -10 -104 -7 -36 -58 -99 -110 -138 -59 -44 -93 -57 -160 -65
-77 -8 -234 -25 -295 -31 -30 -3 -65 -7 -78 -9 -12 -2 -57 -7 -100 -10 -42 -4
-80 -12 -84 -18 -3 -5 -11 -44 -17 -86 -6 -42 -13 -87 -16 -101 -2 -14 -18
-108 -34 -209 -17 -101 -32 -185 -33 -186 -2 -1 -46 -14 -99 -28 -75 -19 -107
-23 -140 -17 -24 4 -64 10 -89 13 -38 5 -75 9 -167 21 -6 1 -41 24 -78 50 -61
45 -65 51 -61 80 38 226 48 287 52 321 3 22 7 46 10 53 3 11 -6 13 -43 8 -54
-7 -137 -15 -203 -21 -25 -3 -76 -8 -115 -11 -140 -14 -204 -8 -275 24 -67 31
-104 71 -157 172 -26 50 -62 116 -78 148 -70 132 -159 300 -180 337 -65 116
-115 218 -110 226 13 20 95 60 146 70 30 6 65 13 78 15 14 3 28 7 31 9 4 2 21
7 38 10 17 3 70 14 119 26 48 12 95 22 103 24 8 2 201 46 428 99 227 53 414
96 416 96 5 0 26 124 71 400 14 85 27 166 30 180 9 54 45 270 49 297 11 79 37
239 45 273 5 22 7 41 5 43 -3 2 70 95 184 232 9 11 35 43 57 70 22 28 44 55
50 61 5 6 24 28 40 49 30 38 85 105 95 115 3 3 31 38 64 78 l58 74 62 -6 c33
-4 79 -9 100 -12z m-3389 -2504 c63 -36 74 -52 173 -255 71 -146 74 -152 75
-227 l1 -78 -275 -169 c-151 -93 -299 -185 -329 -203 -30 -19 -107 -67 -170
-106 l-116 -71 -2434 0 -2434 0 -221 136 c-121 74 -244 151 -272 169 -29 19
-55 34 -58 34 -3 0 -11 5 -18 10 -7 6 -75 49 -152 96 -77 47 -146 92 -154 100
-10 9 -14 35 -13 86 0 68 5 81 60 194 33 66 69 141 81 166 11 25 34 60 51 76
58 58 83 66 240 71 80 4 1443 5 3028 4 l2884 -3 53 -30z m-8275 -1725 c14 -2
45 -6 70 -9 25 -3 59 -8 75 -10 27 -4 93 -11 180 -21 39 -4 113 -14 145 -20
14 -2 50 -7 80 -10 96 -10 119 -14 139 -25 21 -11 21 -14 -24 -115 -8 -16 -26
-59 -40 -95 -14 -36 -32 -78 -40 -95 -7 -16 -21 -50 -31 -75 -38 -99 -167
-191 -260 -184 -47 3 -166 14 -211 20 -23 2 -68 6 -100 9 -32 3 -80 7 -108 10
-116 11 -191 18 -205 18 -17 0 -50 26 -50 40 0 5 52 127 116 271 64 143 120
271 125 284 8 21 13 22 61 17 29 -3 64 -8 78 -10z m10538 -7 c6 -13 48 -106
92 -208 45 -102 95 -214 112 -250 29 -61 39 -112 25 -126 -7 -7 -29 -11 -137
-19 -41 -4 -86 -8 -100 -10 -14 -2 -63 -6 -110 -10 -47 -4 -96 -8 -110 -10
-14 -2 -63 -7 -109 -10 -47 -4 -92 -8 -102 -10 -10 -2 -40 5 -68 15 -90 32
-145 84 -184 170 -67 149 -148 354 -145 369 3 16 18 19 146 36 128 16 209 26
232 30 14 2 52 7 85 10 63 7 104 13 145 20 14 2 57 7 95 10 39 4 72 9 74 11
13 12 49 1 59 -18z m-4363 -502 c203 -7 262 -10 286 -15 4 0 5 -22 4 -48 -2
-27 -6 -111 -10 -188 -6 -117 -11 -200 -14 -225 -2 -10 -2481 -5 -2482 5 -4
34 -7 87 -13 220 -4 83 -9 169 -11 193 -2 23 -1 42 3 43 4 0 15 2 24 4 9 2
131 6 270 10 139 4 254 8 255 8 5 6 1499 -1 1688 -7z m-2392 -25 c4 0 7 -47 7
-103 -1 -142 -22 -214 -83 -284 l-48 -53 -345 4 -346 5 -61 46 c-34 25 -67 58
-74 72 -17 38 -16 133 3 229 14 70 20 82 38 85 19 3 891 2 909 -1z m3760 -1
c3 -3 7 -18 10 -35 3 -16 10 -54 16 -84 12 -58 14 -153 5 -187 -3 -12 -36 -45
-74 -73 l-68 -52 -345 -4 -345 -3 -46 49 c-60 65 -86 151 -86 290 0 56 4 99
10 101 16 5 918 3 923 -2z"/>
<path d="M3543 11329 c-40 -17 -101 -84 -107 -119 -5 -33 3 -45 188 -271 183
-225 194 -240 201 -290 4 -30 9 -61 10 -69 2 -13 6 -35 20 -120 2 -14 9 -54
15 -90 10 -68 17 -108 25 -150 3 -14 7 -47 11 -75 3 -27 8 -52 9 -55 2 -3 6
-26 10 -50 3 -25 22 -139 41 -255 20 -115 37 -221 39 -235 2 -14 18 -110 35
-215 18 -104 33 -199 35 -210 4 -26 24 -152 31 -190 7 -36 10 -54 19 -120 3
-27 8 -57 10 -65 3 -8 7 -32 11 -54 3 -21 8 -48 10 -60 2 -11 7 -41 10 -66 3
-25 7 -52 9 -60 2 -8 7 -33 10 -55 3 -23 8 -52 10 -65 3 -14 14 -77 24 -141 9
-63 20 -120 24 -126 6 -9 60 -27 77 -25 71 6 122 18 148 35 30 20 32 25 26 57
-3 19 -7 44 -9 55 -2 11 -13 79 -24 150 -12 72 -26 157 -31 190 -5 33 -11 69
-14 80 -5 25 -17 98 -21 128 -5 37 -15 100 -21 129 -3 15 -7 39 -9 55 -13 87
-42 264 -50 303 -2 13 -7 40 -10 60 -3 20 -7 45 -9 57 -3 12 -8 43 -12 70 -3
26 -8 57 -10 68 -3 11 -7 36 -10 55 -3 19 -27 168 -54 330 -27 162 -51 311
-55 330 -3 19 -7 46 -10 60 -2 14 -7 43 -10 65 -5 38 -13 87 -21 130 -3 11
-11 63 -20 115 -8 52 -17 109 -20 125 -3 17 -7 39 -11 50 -3 11 -102 138 -220
281 -206 252 -215 262 -248 261 -19 -1 -42 -4 -52 -8z"/>
<path d="M16354 11317 c-18 -21 -134 -162 -238 -291 -27 -34 -77 -95 -111
-136 -70 -85 -73 -90 -90 -210 -6 -39 -14 -88 -51 -315 -19 -115 -37 -221 -39
-235 -49 -299 -116 -700 -119 -716 -2 -12 -7 -45 -11 -75 -4 -30 -8 -56 -10
-59 -2 -3 -6 -27 -10 -55 -4 -27 -9 -59 -10 -70 -2 -11 -6 -38 -10 -60 -3 -22
-8 -49 -10 -61 -3 -12 -7 -39 -10 -60 -4 -21 -8 -50 -11 -64 -2 -14 -7 -41 -9
-60 -3 -19 -8 -44 -10 -56 -3 -12 -7 -39 -11 -60 -13 -87 -85 -521 -90 -546
-7 -36 45 -76 109 -82 26 -3 51 -8 56 -10 9 -6 70 12 84 24 6 5 26 106 42 210
2 14 11 70 20 125 10 55 18 109 20 120 1 11 5 34 8 50 3 17 9 48 12 70 3 22
10 65 15 95 18 107 21 125 26 157 2 18 10 70 18 116 8 47 18 106 22 133 3 27
8 51 9 54 2 3 6 26 10 50 8 58 13 93 25 160 5 30 12 70 15 88 3 17 7 44 10 60
2 15 20 124 40 242 19 118 37 226 40 240 2 14 16 99 30 190 14 91 28 172 30
180 2 8 6 33 9 55 6 40 18 113 22 128 1 4 2 18 3 31 1 22 62 101 276 361 18
22 51 62 74 90 46 55 45 54 30 104 -15 47 -90 103 -146 108 -31 2 -44 -2 -59
-20z"/>
<path d="M2729 15501 c-22 -17 -28 -33 -39 -113 -7 -51 -14 -100 -15 -108 -18
-98 -24 -221 -14 -270 5 -19 22 -116 39 -215 17 -99 37 -216 45 -260 7 -44 16
-96 20 -115 3 -19 10 -57 15 -85 11 -59 18 -106 26 -160 6 -45 40 -102 67
-111 10 -3 32 3 50 13 l32 19 -3 185 c-1 101 -4 239 -6 307 -2 67 -1 122 2
123 25 4 87 8 222 14 85 3 180 8 210 10 30 2 118 6 195 10 77 3 172 8 210 10
96 6 252 13 420 21 77 3 156 8 175 9 19 2 51 4 71 4 30 1 41 7 62 39 25 37
102 148 189 272 103 149 128 185 128 191 0 4 -20 5 -44 4 -23 -2 -110 -6 -192
-9 -82 -4 -178 -8 -214 -11 -36 -2 -126 -7 -200 -10 -74 -3 -171 -7 -215 -10
-44 -2 -138 -7 -210 -10 -178 -8 -281 -13 -405 -20 -58 -2 -166 -7 -240 -11
-74 -3 -156 -7 -182 -8 l-46 -3 -17 111 c-30 196 -30 196 -53 196 -9 0 -26 3
-37 6 -13 3 -31 -3 -46 -15z"/>
<path d="M17188 15509 c-23 -9 -27 -17 -34 -72 -4 -34 -8 -64 -9 -67 -1 -3 -5
-25 -9 -50 -4 -25 -9 -54 -11 -65 -2 -11 -4 -27 -4 -36 -1 -12 -10 -16 -38
-14 -41 3 -225 12 -398 20 -60 3 -157 7 -215 10 -58 3 -157 7 -220 10 -63 3
-149 7 -190 10 -41 2 -138 7 -215 10 -77 4 -176 8 -220 10 -44 3 -143 7 -220
10 -77 3 -162 8 -188 10 -37 3 -47 1 -44 -9 3 -7 81 -122 173 -255 155 -224
169 -241 198 -242 17 -1 49 -2 71 -4 22 -1 114 -6 205 -10 91 -4 188 -9 215
-10 28 -2 109 -6 180 -9 72 -4 171 -9 220 -11 50 -3 137 -8 195 -10 58 -3 161
-8 230 -11 69 -4 141 -7 160 -8 l35 -2 -3 -179 c-2 -99 -5 -237 -6 -307 -3
-120 -2 -128 18 -141 67 -44 116 -11 129 88 3 22 17 103 31 180 13 77 27 154
29 170 3 17 15 86 27 155 12 69 24 136 26 150 3 14 13 71 23 127 9 57 17 122
15 145 -2 48 -13 142 -19 173 -2 11 -7 43 -10 70 -14 124 -17 135 -45 155 -31
22 -42 23 -82 9z"/>
<path d="M1343 5394 c-2 -6 -2 -174 -1 -375 l3 -364 54 -107 54 -108 146 -108
c167 -125 160 -119 192 -126 13 -2 67 -14 119 -26 52 -12 115 -26 139 -31 23
-5 62 -14 85 -21 29 -8 198 -12 596 -13 572 -2 571 -2 810 39 14 2 59 10 100
16 101 15 104 17 148 53 21 18 55 46 76 62 21 17 46 37 56 45 10 8 41 33 69
55 36 28 56 54 71 90 12 27 25 59 30 70 53 121 50 89 50 489 l0 371 -1396 0
c-979 0 -1398 -3 -1401 -11z"/>
<path d="M15860 5037 l0 -368 40 -98 c22 -53 40 -102 40 -108 0 -13 35 -49 90
-93 24 -19 84 -68 133 -108 49 -39 99 -74 111 -76 11 -3 66 -12 121 -21 55 -9
111 -19 125 -21 14 -2 43 -7 65 -10 22 -3 56 -9 75 -13 19 -4 289 -7 600 -6
l565 1 135 33 c74 18 146 34 160 37 106 21 131 34 277 142 160 120 149 106
237 292 l26 56 -2 364 -3 365 -1398 0 -1397 0 0 -368z"/>
</g>
</svg>
